<svg version="1.1" viewBox="0.0 0.0 173.76115485564304 173.76115485564304" fill="none" stroke="none" stroke-linecap="square" stroke-miterlimit="10" xmlns:xlink="http://www.w3.org/1999/xlink" xmlns="http://www.w3.org/2000/svg"><clipPath id="p.0"><path d="m0 0l173.76115 0l0 173.76115l-173.76115 0l0 -173.76115z" clip-rule="nonzero"/></clipPath><g clip-path="url(#p.0)"><path fill="#000000" fill-opacity="0.0" d="m0 0l173.76115 0l0 173.76115l-173.76115 0z" fill-rule="evenodd"/><path fill="#36b37e" d="m1.21784775E-4 28.961319l0 0c0 -15.994833 12.966374 -28.961208 28.961208 -28.961208l115.841354 0l0 0c7.6809998 0 15.047394 3.0512614 20.478668 8.482542c5.4312897 5.43128 8.482544 12.797676 8.482544 20.478666l0 115.84137c0 15.994827 -12.96637 28.961197 -28.961212 28.961197l-115.841354 0c-15.994834 0 -28.961208 -12.96637 -28.961208 -28.961197z" fill-rule="evenodd"/><path fill="#fefffe" d="m18.631422 86.881645l0 0c0 -8.8365555 7.1634445 -16.0 16.000002 -16.0l100.18898 0c4.243454 0 8.313126 1.6857071 11.313705 4.6862946c3.0005798 3.0005798 4.6862946 7.070244 4.6862946 11.313705l0 0l0 0c0 8.8365555 -7.163452 16.0 -16.0 16.0l-100.18898 0c-8.836557 0 -16.000002 -7.1634445 -16.000002 -16.0z" fill-rule="evenodd"/><path fill="#fefffe" d="m86.879456 20.78847l0 0c8.8365555 0 16.0 7.1634426 16.0 15.999998l0 100.18898c0 4.243454 -1.6857071 8.313126 -4.6862946 11.313705c-3.0005798 3.0005798 -7.070244 4.6862946 -11.313705 4.6862946l0 0l0 0c-8.8365555 0 -16.0 -7.163452 -16.0 -16.0l0 -100.18898c0 -8.8365555 7.1634445 -15.999998 16.0 -15.999998z" fill-rule="evenodd"/></g></svg>