<svg version="1.1" viewBox="0.0 0.0 173.76115485564304 173.76115485564304" fill="none" stroke="none" stroke-linecap="square" stroke-miterlimit="10" xmlns:xlink="http://www.w3.org/1999/xlink" xmlns="http://www.w3.org/2000/svg"><clipPath id="p.0"><path d="m0 0l173.76115 0l0 173.76115l-173.76115 0l0 -173.76115z" clip-rule="nonzero"/></clipPath><g clip-path="url(#p.0)"><path fill="#000000" fill-opacity="0.0" d="m0 0l173.76115 0l0 173.76115l-173.76115 0z" fill-rule="evenodd"/><path fill="#6555c1" d="m6.724409E-4 28.961668l0 0c0 -15.994834 12.966375 -28.961208 28.961208 -28.961208l115.841354 0l0 0c7.6809998 0 15.047394 3.0512617 20.478668 8.482542c5.4312897 5.43128 8.482544 12.797677 8.482544 20.478668l0 115.841354c0 15.994843 -12.96637 28.961212 -28.961212 28.961212l-115.841354 0c-15.994834 0 -28.961208 -12.96637 -28.961208 -28.961212z" fill-rule="evenodd"/><path fill="#f2f0fb" d="m20.81515 38.016815l0 0c0 -8.8365555 7.1634445 -16.0 16.000002 -16.0l100.188965 0c4.243469 0 8.313126 1.685709 11.313721 4.6862907c3.0005798 3.0005836 4.6862793 7.070244 4.6862793 11.313709l0 0l0 0c0 8.8365555 -7.163437 16.0 -16.0 16.0l-100.188965 0c-8.836557 0 -16.000002 -7.1634445 -16.000002 -16.0z" fill-rule="evenodd"/><path fill="#f2f0fb" d="m20.81515 86.87816l0 0c0 -8.8365555 7.1634445 -16.0 16.000002 -16.0l100.188965 0c4.243469 0 8.313126 1.6857071 11.313721 4.6862946c3.0005798 3.0005798 4.6862793 7.070244 4.6862793 11.313705l0 0l0 0c0 8.8365555 -7.163437 16.0 -16.0 16.0l-100.188965 0c-8.836557 0 -16.000002 -7.1634445 -16.000002 -16.0z" fill-rule="evenodd"/><path fill="#f2f0fb" d="m20.81515 135.7395l0 0c0 -8.8365555 7.1634445 -16.0 16.000002 -16.0l51.24409 0l0 0c4.243469 0 8.313126 1.6857071 11.313713 4.6862946c3.0005798 3.0005798 4.686287 7.070236 4.686287 11.313705l0 0l0 0c0 8.836563 -7.1634445 16.0 -16.0 16.0l-51.24409 0c-8.836557 0 -16.000002 -7.163437 -16.000002 -16.0z" fill-rule="evenodd"/></g></svg>